<?xml version="1.0" encoding="UTF-8" standalone="no"?>
<!-- Created with Inkscape (http://www.inkscape.org/) -->

<svg
   width="49.182049mm"
   height="23.038315mm"
   viewBox="0 0 49.182049 23.038315"
   version="1.1"
   id="svg1"
   xml:space="preserve"
   xmlns="http://www.w3.org/2000/svg"
   xmlns:svg="http://www.w3.org/2000/svg"><defs
     id="defs1" /><g
     id="layer1"
     transform="translate(-81.025377,-111.91538)"><g
       style="fill:none"
       id="g1"
       transform="matrix(0.26458333,0,0,0.26458333,-162.5153,23.696088)"><path
         d="m 951.358,333.5 c 5.704,-0.822 11.745,5.413 13.485,14.017 1.74,8.555 -1.401,16.191 -7.105,17.061 -5.655,0.87 -11.745,-5.365 -13.533,-13.968 -1.788,-8.555 1.45,-16.192 7.153,-17.11 z m 34.559,0 c 5.751,0.918 8.941,8.555 7.25,17.11 -1.837,8.603 -7.879,14.838 -13.582,13.968 -5.752,-0.87 -8.893,-8.506 -7.105,-17.061 1.74,-8.604 7.782,-14.839 13.437,-14.017 z M 925.5,355.733 c 5.51,-2.368 13.002,1.934 16.917,9.425 3.673,7.637 2.416,15.66 -3.045,18.029 -5.462,2.368 -12.905,-1.885 -16.724,-9.474 -3.818,-7.588 -2.465,-15.66 2.852,-17.98 z m 87,0 c 5.317,2.32 6.67,10.392 2.852,17.98 -3.819,7.589 -11.262,11.842 -16.724,9.474 -5.461,-2.369 -6.718,-10.392 -3.045,-18.029 3.915,-7.491 11.407,-11.793 16.917,-9.425 z m -8.072,52.104 c 0.194,4.543 -3.286,9.57 -7.443,11.455 -8.652,3.963 -18.898,-4.254 -28.517,-4.254 -9.618,0 -19.961,8.555 -28.468,4.254 -4.833,-2.369 -8.168,-8.652 -7.54,-13.872 0.87,-7.202 9.522,-11.068 14.645,-16.337 6.815,-6.815 11.648,-19.623 21.363,-19.623 9.667,0 14.79,12.615 21.315,19.623 5.365,5.897 14.307,10.875 14.645,18.754 z"
         style="fill:#dacbb0;fill-opacity:1"
         class="fills"
         id="path1" /></g><g
       id="g24"><path
         d="m 96.729552,121.35667 q -0.210961,0 -0.421923,-0.1651 -0.210961,-0.1651 -0.302683,-0.50447 -0.09172,-0.34854 -0.128411,-0.79798 -0.03669,-0.45861 -0.03669,-0.96308 0,-0.71544 0.06421,-1.45839 0.06421,-0.75212 0.1651,-1.42169 0.110066,-0.66957 0.229305,-1.12818 -0.155927,0.0275 -0.284339,0.0459 -0.128411,0.0183 -0.220133,0.0367 -0.467783,0.0825 -0.853016,0.19261 -0.376061,0.11007 -0.605367,0.24765 -0.220133,0.13759 -0.220133,0.31186 0,0.055 0.04586,0.14675 0.01834,0.0367 0.01834,0.0642 0,0.0642 -0.05503,0.0642 -0.07338,0 -0.183444,-0.11006 -0.08255,-0.0734 -0.146756,-0.23848 -0.05503,-0.1651 -0.05503,-0.3302 0,-0.23848 0.128411,-0.36689 0.1651,-0.1651 0.632883,-0.29351 0.476956,-0.12841 1.07315,-0.21096 0.210961,-0.0275 0.568678,-0.055 0.357716,-0.0275 0.779638,-0.0275 0.541161,0 1.119011,0.0642 0.57785,0.0642 1.07315,0.22014 0.504472,0.15593 0.816327,0.44944 0.31185,0.28434 0.31185,0.73377 0,0.50448 -0.23848,0.9906 -0.238469,0.47696 -0.669564,0.86219 -0.431094,0.38524 -1.008944,0.61454 -0.57785,0.22014 -1.256594,0.22014 -0.146756,0 -0.293511,-0.009 -0.137584,-0.009 -0.293511,-0.0367 -0.01835,0.17428 -0.02752,0.34855 -0.0092,0.17427 -0.01834,0.33937 0,0.0917 -0.0092,0.20179 0,0.11007 0,0.2293 0,0.30269 0.02752,0.61454 0.03669,0.31186 0.128411,0.52282 0.09172,0.20179 0.275167,0.20179 0.09172,0 0.192616,-0.0367 0.100895,-0.0367 0.128411,-0.0734 h 0.06421 q -0.01834,0.24765 -0.174272,0.37606 -0.146756,0.12841 -0.339372,0.12841 z m -0.210961,-3.22862 h 0.119238 q 0.541161,0 1.109839,-0.17427 0.568678,-0.18344 1.045633,-0.50447 0.476956,-0.32103 0.770467,-0.75212 0.293511,-0.44027 0.293511,-0.95391 0,-0.37607 -0.293511,-0.57785 -0.284339,-0.20179 -0.74295,-0.27517 -0.458611,-0.0825 -0.972256,-0.0825 -0.201788,0 -0.403577,0.009 -0.201789,0.009 -0.394406,0.0275 l 0.02752,0.055 q -0.02752,0.11924 -0.100894,0.44027 -0.06421,0.31185 -0.155928,0.76129 -0.08255,0.44027 -0.1651,0.96309 -0.08255,0.52281 -0.137583,1.06397 z m 6.007809,2.73332 q -0.28434,0 -0.45861,-0.17427 -0.17427,-0.18344 -0.27517,-0.45861 -0.0917,-0.28434 -0.12841,-0.56868 -0.0367,-0.29351 -0.0367,-0.51364 -0.11007,0.41275 -0.28434,0.80715 -0.1651,0.39441 -0.36689,0.65123 -0.20179,0.24765 -0.44026,0.24765 h -0.009 q -0.22013,0 -0.36688,-0.20179 -0.14676,-0.21096 -0.220138,-0.55033 -0.07338,-0.33937 -0.07338,-0.73378 v -0.0917 q 0,-0.36689 0.06421,-0.80715 0.06421,-0.44944 0.229308,-0.85302 0.1651,-0.40358 0.44943,-0.6604 0.29352,-0.266 0.74295,-0.266 0.17428,0 0.31186,0.0825 0.14676,0.0734 0.21096,0.22014 0.0642,-0.0734 0.17427,-0.11924 0.11007,-0.0459 0.266,-0.0459 0.055,0 0.11924,0.009 0.0734,0.009 0.14675,0.0275 -0.055,0.21096 -0.12841,0.57785 -0.0734,0.36689 -0.12841,0.80715 -0.0459,0.4311 -0.0459,0.84385 v 0.0367 q 0,0.17427 0.0183,0.41274 0.0183,0.23848 0.0642,0.46779 0.0459,0.2293 0.12841,0.38523 0.0825,0.15593 0.21096,0.15593 h 0.009 q 0.0734,0 0.15593,-0.0734 0.0917,-0.0734 0.19262,-0.27517 0.13758,-0.26599 0.25682,-0.68791 0.0183,-0.0825 0.0734,-0.0825 0.0459,0 0.0459,0.11006 v 0.0367 q -0.0183,0.23848 -0.12841,0.54116 -0.11007,0.30269 -0.31186,0.52282 -0.19261,0.22013 -0.46778,0.22013 z m -1.67852,-0.76129 q 0.14676,0 0.266,-0.21096 0.12841,-0.21096 0.2293,-0.51364 0.1009,-0.30269 0.17427,-0.58703 0.11007,-0.42192 0.14676,-0.85301 0.0367,-0.44027 0.15593,-0.86219 -0.11007,-0.11924 -0.24765,-0.11924 -0.20179,0 -0.41275,0.20179 -0.21096,0.20179 -0.3302,0.45861 -0.14676,0.32103 -0.22014,0.75212 -0.0642,0.4311 -0.0642,0.8255 0,0.1009 0,0.20179 0.009,0.10089 0.0183,0.19262 0.0183,0.27516 0.1009,0.3944 0.0917,0.11924 0.18344,0.11924 z m 3.03601,0.76129 q -0.19261,0 -0.30268,-0.17427 -0.11006,-0.18344 -0.1651,-0.43109 -0.0459,-0.24765 -0.0642,-0.4311 -0.0183,-0.20179 -0.0275,-0.40357 -0.009,-0.20179 -0.009,-0.37606 0,-0.12842 0,-0.22931 0,-0.11007 0.009,-0.17427 0.0183,-0.23848 0.055,-0.51365 0.0459,-0.28434 0.14676,-0.53199 0.11006,-0.24765 0.29351,-0.40357 0.19262,-0.15593 0.4953,-0.15593 0.0275,0 0.055,0.009 0.0275,0 0.055,0 v 0.0825 q -0.12842,0.0367 -0.22931,0.33937 -0.10089,0.29351 -0.15593,0.71544 -0.055,0.42192 -0.055,0.83467 0,0.27517 0.0275,0.4953 0.0642,0.58702 0.29351,0.58702 0.21096,0 0.42192,-0.48613 0.20179,-0.45861 0.26599,-0.95391 0.0734,-0.50447 0.13759,-0.99977 0.0183,-0.13758 0.055,-0.25682 0.0367,-0.12841 0.10089,-0.22014 0.0459,-0.0826 0.266,-0.12841 0.2293,-0.0459 0.40358,-0.0459 0.0642,0 0.0642,0.0459 0,0.0275 -0.0459,0.055 -0.0642,0.0367 -0.11007,0.27516 -0.0367,0.23848 -0.055,0.52282 -0.009,0.14676 -0.0183,0.30268 0,0.14676 0,0.30269 0,0.14675 0,0.28434 0.009,0.13758 0.0183,0.27516 0.009,0.1009 0.0275,0.3302 0.0275,0.22013 0.0825,0.46778 0.055,0.23848 0.14675,0.41275 0.1009,0.17428 0.24765,0.17428 0.1651,0 0.29351,-0.12841 0.12842,-0.12842 0.22014,-0.32103 0.0917,-0.20179 0.13758,-0.40358 0.055,-0.20179 0.0734,-0.33937 0.0183,-0.14676 0.0275,-0.33937 0.009,-0.19262 0.009,-0.42193 0,-0.46778 -0.0734,-0.96308 -0.0642,-0.50447 -0.27517,-0.79798 -0.0367,-0.0459 -0.0367,-0.11007 0,-0.10089 0.0917,-0.1651 0.0917,-0.0734 0.21096,-0.0734 0.0825,0 0.1651,0.0459 0.0917,0.0459 0.15593,0.1651 0.0825,0.14676 0.11923,0.41275 0.0367,0.266 0.0367,0.60537 0,0.53199 -0.0917,1.14653 -0.0917,0.61454 -0.27517,1.10066 -0.0734,0.19262 -0.22013,0.4311 -0.14675,0.2293 -0.35772,0.3944 -0.20178,0.1651 -0.46778,0.1651 -0.0367,0 -0.0734,-0.009 -0.0275,0 -0.0734,-0.009 -0.3302,-0.0734 -0.54117,-0.50447 -0.20178,-0.4311 -0.2293,-1.12818 -0.0367,0.17427 -0.14676,0.44943 -0.10089,0.27517 -0.26599,0.55034 -0.1651,0.27516 -0.37606,0.46778 -0.21096,0.18344 -0.46779,0.18344 z m 3.6964,3.10939 q -0.32103,0 -0.44944,-0.31186 -0.13758,-0.31185 -0.13758,-0.77046 0,-0.19262 0.0183,-0.41275 0.0183,-0.21097 0.055,-0.42193 0.0459,-0.29351 0.12841,-0.57785 0.0825,-0.28434 0.17427,-0.54116 0.12841,-0.36689 0.28434,-0.68791 0.1651,-0.3302 0.1651,-0.72461 v -0.0367 q 0,-0.54116 -0.0459,-1.00894 -0.0367,-0.46779 -0.1009,-0.80716 -0.055,-0.33937 -0.11006,-0.4953 0.18344,-0.055 0.31185,-0.12841 0.12841,-0.0734 0.23848,-0.0826 h 0.0459 q 0.17427,0 0.22014,0.18345 0.0459,0.17427 0.055,0.42192 0.009,0.1651 0.009,0.43109 0,0.266 0.009,0.58702 0.12841,-0.45861 0.30269,-0.8897 0.17427,-0.4311 0.38523,-0.70626 0.21096,-0.28434 0.43109,-0.28434 0.27517,0 0.42193,0.19262 0.15592,0.19261 0.22013,0.48612 0.0734,0.28434 0.0825,0.57785 0.0183,0.28434 0.0183,0.47696 0,0.47695 -0.12841,0.99977 -0.11924,0.51364 -0.38523,0.88053 h 0.0459 q 0.40358,0 0.73378,-0.37606 0.2293,-0.25682 0.33937,-0.62371 0.11007,-0.36689 0.15593,-0.76129 0.055,-0.39441 0.0825,-0.71544 0.0183,-0.12841 0.0183,-0.23847 0,-0.11924 0,-0.21096 v -0.14676 q -0.2293,-0.10089 -0.33937,-0.29351 -0.10089,-0.19262 -0.10089,-0.36689 0,-0.12841 0.0459,-0.22013 0.055,-0.1009 0.15592,-0.11007 h 0.0183 q 0.12841,0 0.2293,0.18344 0.1009,0.17428 0.1651,0.39441 0.0642,0.21096 0.0642,0.33937 0.11007,0.0826 0.23848,0.11924 0.13758,0.0367 0.2293,0.0367 0.11924,0 0.15593,-0.0367 0.0734,-0.0734 0.17427,-0.21096 0.11007,-0.13758 0.33938,-0.13758 0.15592,0 0.37606,0.0917 -0.11007,0.2293 -0.20179,0.52282 -0.0917,0.28433 -0.15593,0.60536 -0.009,0.0734 -0.0459,0.29351 -0.0367,0.22014 -0.0642,0.50448 -0.0275,0.28433 -0.0275,0.56867 0,0.40358 0.0825,0.71544 0.0917,0.30268 0.3302,0.30268 0.14675,0 0.25682,-0.11924 0.11007,-0.11924 0.19262,-0.29351 0.0825,-0.18345 0.13758,-0.34855 0.055,-0.17427 0.0825,-0.27516 0.0183,-0.0825 0.0734,-0.0825 0.0459,0 0.0459,0.10089 v 0.0459 q -0.0642,0.63289 -0.35772,0.96309 -0.28434,0.32102 -0.68792,0.32102 -0.31185,0 -0.48612,-0.19261 -0.1651,-0.20179 -0.23848,-0.51365 -0.0642,-0.32102 -0.0642,-0.68791 0,-0.39441 0.0459,-0.77047 0.055,-0.38523 0.11007,-0.67874 0.0642,-0.29351 0.0917,-0.40358 -0.25682,-0.0184 -0.40357,-0.0826 -0.14676,-0.0642 -0.24765,-0.15593 -0.009,0.13758 -0.0275,0.28434 -0.0183,0.14676 -0.0367,0.30268 -0.0459,0.36689 -0.11924,0.80716 -0.0642,0.43109 -0.22013,0.8255 -0.15593,0.3944 -0.46779,0.65123 -0.31185,0.25682 -0.6604,0.25682 -0.10089,0 -0.20178,-0.0275 -0.14676,0.15593 -0.33938,0.24765 -0.19261,0.0917 -0.43109,0.0917 -0.26599,0 -0.40358,-0.11006 v 0.40357 q 0,0.28434 0,0.51365 0,0.23848 -0.009,0.38523 -0.0275,0.57785 -0.10089,0.94474 -0.0917,0.44944 -0.27517,0.73378 -0.18345,0.28434 -0.4953,0.28434 z m 1.17405,-3.4029 q 0.14675,0 0.26599,-0.0917 0.21096,-0.1651 0.33937,-0.53199 0.13759,-0.37606 0.19262,-0.74295 0.0275,-0.15592 0.0367,-0.37606 0.0183,-0.22013 0.0183,-0.44944 0,-0.3944 -0.0642,-0.70626 -0.0642,-0.32103 -0.24765,-0.32103 -0.11007,0 -0.22931,0.19262 -0.11006,0.19262 -0.22013,0.50447 -0.11007,0.31186 -0.21096,0.66958 -0.0917,0.34854 -0.1651,0.66957 0.009,0.26599 0.009,0.53199 0,0.26599 0,0.53198 0.11924,0.11924 0.27517,0.11924 z m -1.21074,3.10939 q 0.055,0 0.11007,-0.0825 0.0642,-0.0734 0.11007,-0.24765 0.0642,-0.23848 0.0825,-0.61454 0.0275,-0.37606 0.0275,-0.78881 0,-0.44944 -0.0183,-0.88054 -0.0183,-0.42192 -0.0367,-0.70626 -0.0825,0.19262 -0.18344,0.45861 -0.1009,0.266 -0.17428,0.55951 -0.0917,0.3302 -0.14675,0.66957 -0.0642,0.34855 -0.0642,0.69709 0,0.29351 0.055,0.58702 0.0275,0.12841 0.10089,0.23848 0.0642,0.11007 0.13758,0.11007 z m 6.83331,-7.50288 q -0.17427,0 -0.31186,-0.12841 -0.12841,-0.12841 -0.12841,-0.31186 0,-0.18344 0.12841,-0.31185 0.13759,-0.12841 0.31186,-0.12841 0.18344,0 0.31186,0.12841 0.12841,0.12841 0.12841,0.31185 0,0.18345 -0.12841,0.31186 -0.12842,0.12841 -0.31186,0.12841 z m 0.11007,4.73287 q -0.3302,0 -0.54116,-0.22931 -0.20179,-0.22931 -0.31186,-0.55951 -0.10089,-0.33937 -0.14676,-0.65122 -0.0275,-0.21096 -0.0367,-0.39441 0,-0.19261 0,-0.37606 0.0183,-0.52282 0.0917,-0.96308 0.0825,-0.44027 0.1651,-0.5962 0.055,-0.11006 0.17427,-0.20179 0.12841,-0.10089 0.33937,-0.10089 0.11924,0 0.23848,0.0275 -0.0917,0.32102 -0.22013,0.89887 -0.12841,0.56868 -0.12841,1.2566 0,0.34854 0.0459,0.70626 0.0459,0.35772 0.17427,0.60537 0.13758,0.23847 0.37606,0.23847 0.19262,0 0.33937,-0.14675 0.18345,-0.17427 0.27517,-0.46779 0.10089,-0.29351 0.17427,-0.59619 0.0275,-0.12841 0.0917,-0.12841 0.0642,0 0.0642,0.11007 0,0.0275 -0.009,0.0642 0,0.0367 -0.009,0.0825 -0.055,0.31186 -0.19261,0.64206 -0.12841,0.3302 -0.35772,0.5595 -0.2293,0.22014 -0.59619,0.22014 z m 1.24741,-0.0183 q -0.12841,0 -0.22013,-0.0917 -0.0825,-0.1009 -0.0825,-0.3302 0,-0.0367 0,-0.0734 0,-0.0459 0.009,-0.0917 0.0183,-0.1651 0.0367,-0.45861 0.0275,-0.29351 0.0367,-0.6604 0.0183,-0.36689 0.0183,-0.73378 0,-0.38523 -0.0275,-0.7246 -0.0183,-0.34855 -0.0734,-0.55034 0.0734,-0.0183 0.19262,-0.10089 0.11924,-0.0825 0.24765,-0.11007 0.0275,-0.009 0.0734,-0.009 0.15593,0 0.19262,0.1651 0.0459,0.1651 0.0459,0.40358 0,0.1651 -0.009,0.3944 0,0.22014 -0.0183,0.38524 0.10089,-0.29352 0.22013,-0.50448 0.11924,-0.22013 0.25682,-0.42192 0.13758,-0.21096 0.29351,-0.41275 0.15593,-0.21096 0.42192,-0.21096 0.27517,0 0.35772,0.18344 0.0826,0.18345 0.0826,0.40358 0,0.11924 -0.009,0.22931 -0.009,0.10089 -0.0183,0.19261 0,0.0642 -0.0275,0.33938 -0.0275,0.26599 -0.055,0.63288 -0.0275,0.35772 -0.0275,0.72461 0,0.10089 0.009,0.28433 0.009,0.17428 0.0367,0.35772 0.0275,0.17427 0.0917,0.30268 0.0734,0.11924 0.19262,0.11924 0.0734,0 0.1651,-0.055 0.10089,-0.0734 0.17427,-0.19262 0.0825,-0.11924 0.12841,-0.23848 0.0367,-0.0825 0.0734,-0.18344 0.0367,-0.10089 0.0642,-0.21096 0.0367,-0.11007 0.1009,-0.11007 0.0459,0 0.0459,0.0917 v 0.0367 q 0,0.0642 -0.0275,0.1651 -0.0183,0.1009 -0.055,0.20179 -0.11007,0.33937 -0.3302,0.5962 -0.21096,0.24765 -0.59619,0.24765 -0.25683,0 -0.40358,-0.19262 -0.13759,-0.20179 -0.20179,-0.51364 -0.0367,-0.17428 -0.055,-0.34855 -0.009,-0.17427 -0.009,-0.34854 0,-0.4311 0.055,-0.85302 0.0642,-0.43109 0.0642,-0.8255 0,-0.12841 -0.0367,-0.23848 -0.0275,-0.11924 -0.13758,-0.11924 -0.11007,0 -0.26599,0.21097 -0.15593,0.20178 -0.32103,0.59619 -0.1651,0.38523 -0.27517,0.88053 -0.11007,0.48613 -0.11007,0.99977 0,0.31186 0.055,0.63289 -0.0642,0.0459 -0.1651,0.0917 -0.1009,0.0459 -0.18345,0.0459 z m 3.75144,-0.0275 q -0.27517,0 -0.44944,-0.17427 -0.1651,-0.17427 -0.25683,-0.44026 -0.0917,-0.266 -0.12841,-0.55034 -0.0275,-0.28434 -0.0275,-0.50447 v -0.13758 q 0.009,-0.11007 0.0183,-0.41275 0.009,-0.30269 0.0275,-0.70626 0.0183,-0.41275 0.055,-0.83468 h -0.28434 q -0.0734,0 -0.0734,-0.0917 0,-0.0459 0.0367,-0.0917 0.0275,-0.055 0.0734,-0.055 h 0.266 q 0.0367,-0.4311 0.0825,-0.77964 0.0459,-0.34855 0.11006,-0.4953 0.0459,-0.1009 0.1651,-0.17427 0.11924,-0.0825 0.32103,-0.0825 0.055,0 0.11924,0.009 0.0734,0.009 0.13758,0.0275 -0.0459,0.15593 -0.11006,0.56868 -0.055,0.40358 -0.1009,0.9264 h 0.73378 q 0.0825,0 0.0825,0.10089 0,0.0459 -0.0275,0.0917 -0.0275,0.0459 -0.0826,0.0459 h -0.73378 q -0.0459,0.50448 -0.0734,1.04564 -0.0275,0.53199 -0.0367,0.98143 v 0.21096 q 0,0.23847 0.0183,0.52281 0.0183,0.28434 0.0917,0.48613 0.0734,0.20179 0.22014,0.20179 h 0.009 q 0.0734,0 0.15593,-0.0734 0.0917,-0.0734 0.19261,-0.27517 0.0734,-0.12841 0.12842,-0.30268 0.0642,-0.18344 0.12841,-0.38523 0.0367,-0.0825 0.0734,-0.0825 0.0459,0 0.0459,0.11006 v 0.0367 q -0.0183,0.23848 -0.12842,0.54116 -0.11006,0.30269 -0.31185,0.52282 -0.19262,0.22013 -0.46778,0.22013 z"
         id="text4"
         style="font-size:9.17222px;font-family:'Style Script';-inkscape-font-specification:'Style Script, Normal';stroke-width:0.264583"
         aria-label="Pawprint" /><path
         d="m 85.370096,131.7952 q 0.219075,0.0243 0.413809,0.0811 0.194733,0.0487 0.365125,0.11359 v 0.2353 h -2.223206 v -0.2353 q 0.162278,-0.0811 0.33267,-0.12171 0.170391,-0.0406 0.332669,-0.073 v -4.81154 q -0.186619,-0.0324 -0.348897,-0.0811 -0.162278,-0.0568 -0.316442,-0.1217 v -0.23531 h 0.73025 q 0.324556,0 0.705909,-0.0324 0.381352,-0.0325 0.73025,-0.0325 0.39758,0 0.778933,0.0893 0.381353,0.0811 0.673453,0.28399 0.300214,0.20285 0.478719,0.54363 0.18662,0.33267 0.18662,0.83573 0,0.47872 -0.18662,0.8195 -0.186619,0.34079 -0.503061,0.55986 -0.308328,0.21908 -0.705908,0.32456 -0.397581,0.0974 -0.819503,0.0974 -0.04057,0 -0.129822,0 -0.08114,0 -0.178506,0 -0.09737,-0.008 -0.186619,-0.0162 -0.08925,-0.008 -0.129823,-0.0162 z m 0.551745,-4.89268 q -0.194733,0 -0.316442,0.008 -0.121708,0.008 -0.235303,0.0324 v 2.6289 q 0.04057,0.0162 0.113595,0.0243 0.08114,0 0.162278,0.008 0.08925,0.008 0.170391,0.008 0.08114,0 0.129823,0 0.283986,0 0.535516,-0.073 0.251531,-0.0811 0.43815,-0.25153 0.194734,-0.17039 0.308328,-0.43004 0.113595,-0.25964 0.113595,-0.62477 0,-0.66534 -0.381353,-0.99801 -0.373239,-0.33267 -1.038578,-0.33267 z m 7.229481,5.32271 h -1.7526 v -0.20284 q 0.194733,-0.10548 0.486833,-0.19474 V 129.929 q 0,-0.63288 -0.178505,-0.98989 -0.178506,-0.36513 -0.649112,-0.36513 -0.210961,0 -0.381352,0.0811 -0.170392,0.073 -0.308328,0.19474 -0.137936,0.12171 -0.235303,0.28398 -0.09737,0.15417 -0.14605,0.32456 v 2.36925 q 0.129822,0.0325 0.243417,0.073 0.121708,0.0406 0.235302,0.12171 v 0.20284 h -1.744486 v -0.20284 q 0.251531,-0.12982 0.535517,-0.19474 v -5.13609 l -0.616656,-0.0649 v -0.21096 q 0.235303,-0.0974 0.543631,-0.17039 0.316442,-0.073 0.600428,-0.12171 h 0.202847 v 2.8642 h 0.0081 q 0.170392,-0.38135 0.486833,-0.64911 0.324556,-0.26776 0.778934,-0.26776 0.324555,0 0.576086,0.0811 0.259644,0.073 0.430036,0.26776 0.170392,0.19473 0.259644,0.5274 0.08925,0.32456 0.08925,0.82762 v 2.05281 q 0.137936,0.0325 0.275873,0.073 0.137936,0.0406 0.259644,0.12171 z m 0.470605,-2.02847 q 0,-0.51117 0.129822,-0.90064 0.137936,-0.39758 0.389466,-0.66534 0.251531,-0.27587 0.600428,-0.41381 0.357011,-0.14605 0.787048,-0.14605 0.503061,0 0.868186,0.15417 0.365125,0.15416 0.592314,0.43815 0.235303,0.27587 0.340783,0.66534 0.113595,0.38946 0.113595,0.86818 0,1.02235 -0.519289,1.5741 -0.519289,0.55174 -1.395589,0.55174 -0.486834,0 -0.843845,-0.14605 -0.357011,-0.15416 -0.592314,-0.43003 -0.235303,-0.28399 -0.357011,-0.67346 -0.113594,-0.39758 -0.113594,-0.8763 z m 0.778933,0 q 0,0.36513 0.06491,0.68968 0.07303,0.32456 0.219075,0.56798 0.154164,0.2353 0.397581,0.37323 0.243416,0.13794 0.5842,0.13794 0.43815,0 0.714022,-0.43004 0.283986,-0.43003 0.283986,-1.33879 0,-0.37324 -0.07303,-0.68968 -0.06491,-0.32455 -0.210961,-0.55986 -0.14605,-0.24341 -0.373239,-0.38135 -0.227189,-0.13794 -0.543631,-0.13794 -0.478719,0 -0.770819,0.43004 -0.2921,0.43004 -0.2921,1.33879 z m 3.407831,-1.83374 q 0.308328,-0.19473 0.649112,-0.27587 v -0.68968 q 0.10548,-0.0892 0.243416,-0.15416 0.14605,-0.073 0.283986,-0.13794 h 0.202848 v 1.06292 h 1.217087 v 0.40569 h -1.217087 v 2.35303 q 0,0.48684 0.154164,0.68968 0.154164,0.20285 0.462491,0.20285 0.14605,0 0.365122,-0.0162 0.21908,-0.0243 0.37324,-0.0811 l 0.0568,0.12171 q -0.0649,0.073 -0.18662,0.15417 -0.11359,0.0811 -0.26776,0.15416 -0.146048,0.073 -0.324554,0.12171 -0.178505,0.0487 -0.365125,0.0487 -0.486833,0 -0.746478,-0.27587 -0.25153,-0.27587 -0.25153,-0.89253 v -2.58022 h -0.649112 z m 3.221219,1.83374 q 0,-0.51117 0.12982,-0.90064 0.13794,-0.39758 0.38947,-0.66534 0.25153,-0.27587 0.60043,-0.41381 0.35701,-0.14605 0.78704,-0.14605 0.50306,0 0.86819,0.15417 0.36512,0.15416 0.59231,0.43815 0.23531,0.27587 0.34079,0.66534 0.11359,0.38946 0.11359,0.86818 0,1.02235 -0.51929,1.5741 -0.51929,0.55174 -1.39559,0.55174 -0.48683,0 -0.84384,-0.14605 -0.35701,-0.15416 -0.59232,-0.43003 -0.2353,-0.28399 -0.35701,-0.67346 -0.11359,-0.39758 -0.11359,-0.8763 z m 0.77893,0 q 0,0.36513 0.0649,0.68968 0.073,0.32456 0.21908,0.56798 0.15416,0.2353 0.39758,0.37323 0.24342,0.13794 0.5842,0.13794 0.43815,0 0.71402,-0.43004 0.28399,-0.43003 0.28399,-1.33879 0,-0.37324 -0.073,-0.68968 -0.0649,-0.32455 -0.21096,-0.55986 -0.14605,-0.24341 -0.37324,-0.38135 -0.22719,-0.13794 -0.54363,-0.13794 -0.47872,0 -0.77082,0.43004 -0.2921,0.43004 -0.2921,1.33879 z m 5.37951,-2.12584 q 0.43815,0 0.73836,0.0893 0.30021,0.0811 0.50306,0.25964 0.47872,-0.32455 0.99801,-0.4706 0.0649,0.0892 0.0893,0.21907 0.0325,0.12982 0.0325,0.24342 l -0.10548,0.19473 h -0.85196 q 0.20285,0.2921 0.20285,0.77082 0,0.5842 -0.41381,0.94932 -0.4057,0.36513 -1.19274,0.36513 -0.15417,0 -0.25153,-0.008 -0.0974,-0.008 -0.21908,-0.0244 -0.0406,0.073 -0.0974,0.16228 -0.0487,0.0892 -0.0487,0.18662 0,0.16228 0.18662,0.25965 0.18662,0.0892 0.46249,0.16227 0.28399,0.073 0.60854,0.15417 0.33267,0.073 0.61666,0.21096 0.28399,0.12982 0.4706,0.3489 0.19474,0.21096 0.20285,0.55174 0.008,0.2921 -0.13793,0.5274 -0.13794,0.23531 -0.38947,0.38947 -0.25153,0.16228 -0.60854,0.24342 -0.3489,0.0892 -0.77082,0.0892 -0.88442,0 -1.33879,-0.30021 -0.44627,-0.30022 -0.44627,-0.7546 0,-0.21907 0.0649,-0.38135 0.073,-0.16228 0.20285,-0.28399 0.12982,-0.1217 0.32456,-0.21096 0.19473,-0.0974 0.44626,-0.1785 -0.17851,-0.0811 -0.30021,-0.21908 -0.1136,-0.14605 -0.1136,-0.34889 0,-0.18662 0.15417,-0.36513 0.16227,-0.18662 0.32455,-0.2921 -0.46249,-0.12171 -0.71402,-0.46249 -0.24342,-0.34078 -0.24342,-0.77082 0,-0.27587 0.10548,-0.51118 0.10548,-0.24341 0.30833,-0.42192 0.20285,-0.1785 0.50306,-0.27587 0.30022,-0.0974 0.6978,-0.0974 z m 1.20085,4.81154 q 0,-0.25964 -0.1785,-0.41381 -0.1704,-0.15416 -0.43004,-0.25153 -0.25964,-0.0974 -0.55986,-0.16228 -0.30021,-0.0649 -0.55986,-0.14605 -0.30832,0.18662 -0.40569,0.38947 -0.0974,0.21096 -0.0974,0.43004 0,0.43003 0.30833,0.64099 0.30833,0.21908 0.89253,0.21908 0.30021,0 0.49495,-0.0568 0.20284,-0.0568 0.31644,-0.15416 0.12171,-0.0893 0.17039,-0.21908 0.0487,-0.12982 0.0487,-0.27587 z m -2.08527,-3.5052 q 0,0.19473 0.0406,0.37324 0.0487,0.17039 0.14605,0.30021 0.10548,0.12982 0.27587,0.21096 0.1704,0.073 0.42193,0.073 0.4706,0 0.67345,-0.27587 0.20285,-0.27588 0.20285,-0.68157 0,-0.43815 -0.20285,-0.68968 -0.19473,-0.25965 -0.67345,-0.25965 -0.49495,0 -0.68968,0.25154 -0.19474,0.24341 -0.19474,0.69779 z m 5.12799,-0.60043 q -0.0893,0.0487 -0.22719,0.20285 -0.12982,0.14605 -0.2353,0.43815 v 2.40982 q 0.16227,0.0162 0.32455,0.0649 0.16228,0.0406 0.32456,0.12982 v 0.20284 h -1.91488 v -0.20284 q 0.14605,-0.0811 0.27587,-0.12171 0.12982,-0.0406 0.25965,-0.073 v -3.18875 l -0.53552,-0.0649 v -0.21096 q 0.25964,-0.11359 0.53552,-0.1785 0.27587,-0.073 0.5274,-0.1136 h 0.20285 v 0.86008 h 0.0324 q 0.073,-0.16228 0.20285,-0.32456 0.13794,-0.16228 0.30833,-0.2921 0.1785,-0.12982 0.38135,-0.19473 0.21096,-0.073 0.43004,-0.0487 0.0568,0.10548 0.0974,0.23531 0.0487,0.1217 0.0893,0.25964 v 0.21096 z m 4.46264,2.38549 q 0,0.1785 0.008,0.30832 0.008,0.12983 0.0162,0.27588 l 0.55985,0.0811 v 0.1704 q -0.20284,0.10548 -0.45437,0.18662 -0.24342,0.0811 -0.47061,0.1217 h -0.20285 q -0.0811,-0.18662 -0.0974,-0.40569 -0.0162,-0.22719 -0.0243,-0.49495 h -0.0406 q -0.0325,0.16228 -0.12983,0.33267 -0.0893,0.16228 -0.24341,0.2921 -0.14605,0.12982 -0.3489,0.21096 -0.20285,0.0811 -0.46249,0.0811 -0.49495,0 -0.81139,-0.30021 -0.30833,-0.30022 -0.30833,-0.78705 0,-0.37324 0.14605,-0.60854 0.15416,-0.24342 0.44626,-0.38135 0.2921,-0.13794 0.72214,-0.19474 0.43004,-0.0649 0.99801,-0.0974 0.0325,-0.3489 0.0162,-0.62477 -0.008,-0.28399 -0.0893,-0.47872 -0.073,-0.20285 -0.22718,-0.30833 -0.14605,-0.1136 -0.38947,-0.1136 -0.1136,0 -0.25965,0.0162 -0.13793,0.008 -0.27587,0.0649 l -0.38135,0.97367 h -0.21096 q -0.0811,-0.24342 -0.14605,-0.50306 -0.0568,-0.25965 -0.073,-0.51118 0.30833,-0.18662 0.68157,-0.2921 0.38135,-0.10548 0.84384,-0.10548 0.41381,0 0.65723,0.12171 0.25153,0.1136 0.38135,0.30022 0.12982,0.18662 0.17039,0.4138 0.0406,0.22719 0.0406,0.45438 0,0.48684 -0.0243,0.94121 -0.0162,0.44627 -0.0162,0.86008 z m -1.56598,0.65722 q 0.20285,0 0.35701,-0.0811 0.15417,-0.0811 0.25965,-0.19473 0.10548,-0.1136 0.17039,-0.22719 0.0649,-0.12171 0.0893,-0.20285 v -0.85196 q -0.4706,0 -0.77082,0.0487 -0.30021,0.0487 -0.4706,0.15416 -0.17039,0.10548 -0.2353,0.26776 -0.0649,0.15416 -0.0649,0.35701 0,0.3489 0.17851,0.54363 0.17851,0.18662 0.48683,0.18662 z m 4.38961,2.02847 h -1.80128 v -0.20284 q 0.27587,-0.12983 0.53552,-0.19474 v -4.81153 l -0.53552,-0.0649 v -0.21096 q 0.25964,-0.11359 0.5274,-0.1785 0.27587,-0.073 0.53552,-0.1136 h 0.20285 v 0.90876 h 0.008 q 0.16228,-0.41381 0.45438,-0.65723 0.2921,-0.25153 0.7627,-0.25153 0.72214,0 1.11972,0.47872 0.39758,0.47872 0.39758,1.55787 0,0.51117 -0.13794,0.92498 -0.12982,0.41381 -0.38135,0.6978 -0.24341,0.28398 -0.60043,0.43815 -0.34889,0.15416 -0.77893,0.15416 -0.30021,0 -0.47061,-0.0406 -0.17039,-0.0324 -0.37323,-0.12171 v 1.29011 q 0.12982,0.0162 0.25964,0.0568 0.12982,0.0487 0.27587,0.13794 z m 0.43004,-5.27403 q -0.39758,0 -0.63288,0.25154 -0.23531,0.25153 -0.33267,0.68968 v 2.27188 q 0.14605,0.0893 0.32455,0.13794 0.18662,0.0406 0.47872,0.0406 0.26776,0 0.47872,-0.13794 0.21908,-0.13793 0.36513,-0.38946 0.15416,-0.25153 0.2353,-0.5842 0.0811,-0.34079 0.0811,-0.74648 0,-0.33267 -0.0568,-0.60854 -0.0487,-0.28399 -0.17039,-0.48684 -0.1136,-0.21096 -0.30833,-0.32455 -0.18662,-0.1136 -0.46249,-0.1136 z m 6.73453,3.65125 h -1.7526 v -0.20284 q 0.19473,-0.10548 0.48683,-0.19474 V 129.929 q 0,-0.63288 -0.17851,-0.98989 -0.1785,-0.36513 -0.64911,-0.36513 -0.21096,0 -0.38135,0.0811 -0.17039,0.073 -0.30833,0.19474 -0.13793,0.12171 -0.2353,0.28398 -0.0974,0.15417 -0.14605,0.32456 v 2.36925 q 0.12982,0.0325 0.24342,0.073 0.1217,0.0406 0.2353,0.12171 v 0.20284 h -1.74449 v -0.20284 q 0.25153,-0.12982 0.53552,-0.19474 v -5.13609 l -0.61666,-0.0649 v -0.21096 q 0.23531,-0.0974 0.54363,-0.17039 0.31645,-0.073 0.60043,-0.12171 h 0.20285 v 2.8642 h 0.008 q 0.17039,-0.38135 0.48684,-0.64911 0.32455,-0.26776 0.77893,-0.26776 0.32456,0 0.57609,0.0811 0.25964,0.073 0.43003,0.26776 0.17039,0.19473 0.25965,0.5274 0.0892,0.32456 0.0892,0.82762 v 2.05281 q 0.13794,0.0325 0.27587,0.073 0.13794,0.0406 0.25965,0.12171 z m 0.47871,-3.65125 q -0.1217,-0.0325 -0.22718,-0.0811 -0.0974,-0.0487 -0.20285,-0.1136 v -0.21096 h 1.6958 v 0.20285 q -0.17039,0.11359 -0.46249,0.20284 l 1.03858,2.40172 0.15416,0.50306 h 0.0162 l 0.12171,-0.51118 0.77082,-2.3936 q -0.24342,-0.0487 -0.44627,-0.19473 v -0.21096 h 1.38748 v 0.21096 q -0.17039,0.1136 -0.46249,0.19473 l -1.26577,3.65125 q -0.19473,0.51929 -0.37324,0.83574 -0.17039,0.32455 -0.3489,0.51117 -0.17039,0.18662 -0.35701,0.26776 -0.1785,0.0892 -0.38946,0.12982 -0.0893,-0.15416 -0.16228,-0.34078 -0.0649,-0.18662 -0.1136,-0.35701 l 0.10548,-0.19474 h 0.84385 q 0.0487,-0.0649 0.0811,-0.12982 0.0406,-0.0568 0.0811,-0.14605 0.0406,-0.0892 0.0892,-0.22719 0.0487,-0.13793 0.11359,-0.3489 z"
         id="text5"
         style="font-size:8.11389px;font-family:'PT Serif';-inkscape-font-specification:'PT Serif, Normal';stroke-width:0.264583"
         aria-label="Photography" /></g></g></svg>
