<?xml version="1.0" standalone="no"?>
<!DOCTYPE svg PUBLIC "-//W3C//DTD SVG 20010904//EN"
 "http://www.w3.org/TR/2001/REC-SVG-20010904/DTD/svg10.dtd">
<svg version="1.0" xmlns="http://www.w3.org/2000/svg"
 width="776.000000pt" height="776.000000pt" viewBox="0 0 776.000000 776.000000"
 preserveAspectRatio="xMidYMid meet">
<metadata>
Created by potrace 1.14, written by Peter Selinger 2001-2017
</metadata>
<g transform="translate(0.000000,776.000000) scale(0.100000,-0.100000)"
fill="#000000" stroke="none">
<path d="M2445 7352 c-3 -3 -17 -8 -32 -10 -25 -3 -147 -58 -171 -77 -123 -98
-191 -180 -250 -298 -40 -81 -82 -193 -88 -232 -1 -11 -3 -20 -4 -20 -2 0 -8
-26 -15 -70 -3 -16 -8 -41 -10 -55 -25 -134 -19 -374 14 -555 16 -86 21 -107
47 -200 78 -273 223 -525 406 -707 88 -87 155 -136 254 -186 90 -46 98 -48
194 -68 73 -15 163 -11 260 13 104 26 235 121 328 237 73 92 157 303 186 471
28 160 24 439 -7 595 -5 25 -33 149 -42 183 -4 18 -41 128 -52 157 -4 8 -7 17
-8 20 -53 142 -168 342 -252 442 -151 179 -302 284 -498 349 -40 13 -249 22
-260 11z"/>
<path d="M5055 7353 c-87 -17 -273 -94 -295 -122 -3 -3 -23 -18 -45 -33 -42
-29 -115 -97 -176 -164 -42 -47 -139 -179 -139 -190 0 -4 -6 -15 -14 -23 -27
-30 -152 -291 -139 -291 3 0 1 -6 -4 -12 -9 -11 -42 -103 -49 -133 -1 -5 -10
-41 -19 -80 -16 -67 -19 -79 -29 -135 -17 -85 -36 -334 -28 -352 2 -5 5 -45 8
-90 2 -46 6 -94 9 -108 3 -14 8 -41 11 -60 16 -94 56 -216 100 -302 125 -248
313 -382 548 -392 98 -4 197 19 306 71 86 41 170 95 178 115 2 5 8 8 13 8 32
0 247 257 299 357 14 26 30 53 36 60 13 14 104 218 104 233 0 6 4 18 9 28 9
16 48 136 57 175 10 44 13 57 18 88 3 19 8 45 11 58 17 86 25 412 12 496 -48
298 -138 492 -300 647 -69 66 -192 131 -277 147 -53 10 -164 12 -205 4z"/>
<path d="M548 5620 c-16 -5 -28 -6 -28 -3 0 3 -7 0 -15 -7 -8 -7 -15 -10 -15
-6 0 3 -26 -4 -57 -16 -117 -43 -244 -150 -307 -258 -34 -59 -75 -149 -82
-184 -9 -38 -12 -51 -14 -51 -1 0 -3 -9 -6 -20 -26 -131 -26 -361 1 -497 3
-16 7 -38 9 -50 9 -46 46 -168 67 -220 30 -75 40 -103 40 -105 0 -2 87 -163
110 -203 8 -13 19 -30 26 -37 6 -7 26 -35 44 -63 18 -27 36 -50 41 -50 4 0 8
-6 8 -13 0 -14 148 -169 224 -234 132 -114 329 -218 471 -249 6 -1 29 -7 53
-12 43 -10 213 -9 267 1 193 38 354 168 447 362 21 44 40 91 43 104 2 13 9 38
14 55 28 92 40 274 26 401 -14 133 -42 254 -88 380 -16 44 -31 89 -34 100 -4
11 -9 22 -12 25 -3 3 -21 34 -39 70 -45 90 -70 130 -138 224 -66 90 -261 292
-311 321 -18 11 -33 23 -33 27 0 4 -6 8 -14 8 -8 0 -16 4 -18 8 -4 10 -105 71
-173 105 -56 27 -144 58 -220 77 -58 15 -247 21 -287 10z"/>
<path d="M6950 5615 c-91 -18 -180 -51 -285 -104 -49 -25 -94 -49 -100 -54 -5
-4 -35 -26 -65 -48 -242 -179 -422 -413 -553 -719 -49 -115 -98 -330 -102
-445 -1 -28 -3 -55 -6 -60 -2 -6 -4 -28 -3 -50 14 -377 155 -637 408 -749 31
-14 56 -22 56 -19 0 3 6 1 13 -4 34 -28 224 -38 342 -19 96 15 321 111 371
157 11 10 24 19 28 19 28 0 237 191 321 294 153 187 279 435 339 671 36 140
41 188 40 365 -1 131 -5 170 -27 251 -22 86 -55 166 -98 238 -37 64 -127 152
-199 197 -35 21 -66 39 -69 40 -3 0 -19 6 -36 13 -16 7 -41 15 -54 17 -14 3
-29 8 -34 11 -19 11 -224 10 -287 -2z"/>
<path d="M3726 4473 c-2 -2 -17 -6 -33 -7 -41 -4 -80 -15 -155 -43 -37 -13
-70 -24 -74 -23 -4 1 -10 -3 -13 -8 -3 -5 -22 -17 -41 -27 -37 -19 -136 -83
-171 -112 -125 -103 -241 -226 -387 -408 -30 -39 -298 -406 -360 -494 -83
-118 -281 -359 -358 -435 -96 -95 -250 -229 -349 -304 -188 -142 -412 -329
-504 -422 -76 -77 -171 -193 -171 -209 0 -6 -4 -11 -9 -11 -4 0 -26 -35 -47
-77 -22 -43 -43 -81 -49 -85 -5 -4 -7 -8 -3 -8 4 0 0 -19 -8 -42 -18 -50 -23
-69 -31 -123 -9 -54 -7 -228 2 -290 12 -79 53 -214 91 -293 19 -41 34 -76 34
-78 0 -3 29 -49 65 -103 126 -191 293 -331 492 -413 32 -13 24 -11 131 -36
122 -29 351 -24 517 12 102 22 215 54 331 92 77 25 144 47 149 48 6 2 17 6 25
9 93 37 515 173 595 192 6 1 21 5 35 8 14 4 36 9 50 11 14 3 48 9 77 15 178
35 406 33 598 -5 17 -3 38 -6 48 -7 9 -1 17 -5 17 -10 0 -4 4 -6 8 -3 5 3 33
-2 63 -10 30 -8 62 -17 72 -19 32 -7 231 -67 252 -75 11 -5 38 -14 60 -21 22
-6 49 -15 60 -20 36 -15 412 -136 450 -145 31 -8 53 -14 83 -23 17 -5 32 -8
32 -5 0 3 8 1 18 -5 9 -5 35 -11 57 -15 22 -3 51 -8 65 -11 93 -20 361 -27
445 -11 49 9 146 36 160 44 11 7 32 12 53 14 6 1 12 5 12 8 0 4 15 13 33 21
37 15 110 60 115 72 2 4 8 7 13 7 25 0 189 164 252 252 65 91 147 259 161 330
3 13 10 48 16 78 16 80 14 195 -5 300 -10 54 -9 48 -23 83 -7 16 -12 33 -12
38 0 39 -133 265 -214 364 -95 117 -277 298 -446 445 -293 256 -468 429 -586
582 -27 34 -57 72 -67 83 -19 20 -154 204 -172 233 -5 9 -18 25 -27 36 -10 11
-18 23 -18 26 0 4 -8 16 -17 28 -10 11 -25 30 -33 42 -8 12 -36 51 -62 87 -27
35 -48 68 -48 73 0 6 -3 10 -7 10 -5 0 -24 23 -43 50 -19 27 -38 50 -42 50 -5
0 -8 4 -8 10 0 5 -6 18 -14 27 -61 75 -137 165 -166 197 -83 92 -235 236 -250
236 -4 0 -10 4 -12 8 -5 14 -118 87 -187 122 -95 47 -134 61 -251 86 -32 7
-258 13 -264 7z"/>
</g>
</svg>
